# xmcd
#
# Track frame offsets:
#	150
#	22150
#	34965
#	54027
#	75380
#	90640
#	115052
#	137817
#	162962
#	178345
#
# Disc length: 2710 seconds
#
# Revision: 0
# Processed by: cddbd v1.5.1PL2 Copyright (c) Steve Scherf et al.
# Submitted via: audiograbber 1.83.01
#
DISCID=7b0a940a
DTITLE=Eddi reader - Candyfloss And Medicine
DYEAR=1900
DGENRE=
TTITLE0=Glasgow Star
TTITLE1=Town Without Pity
TTITLE2=Medicine
TTITLE3=Rebel Angel
TTITLE4=Semi Precious
TTITLE5=Lazy Heart
TTITLE6=I Loved A Lad
TTITLE7=Butterfly Jar
TTITLE8=Candyfloss
TTITLE9=Darkhouse
EXTD=
EXTT0=
EXTT1=
EXTT2=
EXTT3=
EXTT4=
EXTT5=
EXTT6=
EXTT7=
EXTT8=
EXTT9=
PLAYORDER=
